<?xml version="1.0" encoding="utf-8"?>
<!-- Generator: Adobe Illustrator 26.3.1, SVG Export Plug-In . SVG Version: 6.00 Build 0)  -->
<svg version="1.1" id="Layer_1" xmlns="http://www.w3.org/2000/svg" xmlns:xlink="http://www.w3.org/1999/xlink" x="0px" y="0px"
	 viewBox="0 0 163.079 42.117" enable-background="new 0 0 163.079 42.117" xml:space="preserve">
<g>
	<g>
		<g>
			<path fill="#E21349" d="M94.615,5.146C89.91,3.481,84.36,6.467,80.845,12.07h4.229c2.669-4.017,6.396-6.237,9.699-5.312
				c4.704,1.321,6.792,8.484,4.678,16.016c-2.114,7.532-7.664,12.554-12.342,11.232c-2.405-0.687-4.123-2.881-4.942-5.867h-4.07
				c0.925,3.33,2.934,5.894,5.788,6.924c5.761,2.062,12.844-2.96,15.804-11.206C102.649,15.585,100.376,7.207,94.615,5.146z"/>
			<path fill="#140F11" d="M95.883,3.19c-5.603-2.114-12.422,1.771-16.439,8.88h0.978c3.726-6.052,9.752-9.25,14.747-7.374
				c6.026,2.247,8.272,11.047,5.048,19.637c-3.224,8.616-10.73,13.743-16.756,11.47c-3.066-1.163-5.154-4.017-6.026-7.664h-0.978
				c0.846,4.308,3.171,7.717,6.66,9.012c6.502,2.458,14.615-3.171,18.157-12.554C104.79,15.215,102.385,5.622,95.883,3.19z"/>
			<path fill="#140F11" d="M108.833,9.322c-0.079-0.132-0.132-0.238-0.211-0.37c-1.559-2.986-3.938-5.444-7.083-6.951
				c-0.37-0.185-0.714-0.344-1.084-0.476c-0.502-0.238-1.031-0.423-1.559-0.608L98.87,0.891c-0.079,0-0.159-0.026-0.211-0.053
				c-0.106-0.026-0.185-0.053-0.264-0.079C98.13,0.68,97.839,0.6,97.575,0.521c-0.264-0.053-0.502-0.106-0.767-0.159
				c-0.185-0.053-0.396-0.079-0.581-0.132c-0.238-0.026-0.476-0.053-0.687-0.106c-2.96-0.37-5.894,0.079-8.669,1.427
				c-0.767,0.37-1.506,0.819-2.247,1.321c-0.026,0.026-0.079,0.053-0.106,0.079c-0.37,0.264-0.74,0.529-1.084,0.819
				C83.33,3.851,83.25,3.93,83.171,4.009c-0.449,0.37-0.899,0.767-1.295,1.189c-0.053,0.026-0.106,0.079-0.132,0.132
				c-0.396,0.37-0.74,0.793-1.137,1.216c-0.053,0.079-0.132,0.185-0.211,0.264c-0.264,0.317-0.502,0.634-0.767,0.978
				c0,0,0,0.026-0.026,0.026c-0.185,0.264-0.396,0.529-0.582,0.793c-0.079,0.106-0.159,0.211-0.211,0.317
				c-0.132,0.185-0.238,0.37-0.37,0.555c-0.159,0.238-0.291,0.476-0.449,0.714c-0.132,0.211-0.264,0.423-0.396,0.634
				c-0.053,0.106-0.106,0.211-0.185,0.344c-0.159,0.264-0.317,0.555-0.476,0.846c0,0.026-0.026,0.026-0.026,0.053h1.454
				c4.202-7.664,11.523-11.867,17.575-9.594c6.898,2.59,9.488,12.633,5.814,22.438c-3.673,9.805-12.263,15.672-19.161,13.082
				c-3.832-1.454-6.316-5.18-7.162-9.858h-1.216c0.079,0.396,0.159,0.793,0.264,1.189c0.185,0.872,0.449,1.691,0.766,2.511
				c0.106,0.238,0.211,0.476,0.317,0.714c0.106,0.238,0.238,0.476,0.344,0.713c0.079,0.132,0.132,0.264,0.211,0.396
				c0.159,0.344,0.344,0.661,0.555,0.951c0.106,0.211,0.238,0.396,0.37,0.582c0.132,0.185,0.264,0.396,0.423,0.581
				c1.189,1.586,2.669,2.907,4.44,3.885c0.132,0.079,0.264,0.159,0.423,0.211c0.238,0.159,0.502,0.264,0.766,0.37
				c0.952,0.423,1.929,0.766,2.854,1.031c0.132,0.053,0.264,0.079,0.423,0.106c7.4,2.035,13.664-0.238,18.183-5.656
				c0.132-0.159,0.264-0.344,0.396-0.502c1.401-1.797,2.616-3.885,3.647-6.264C111.556,22.113,111.529,14.819,108.833,9.322z
				 M103.178,24.756c-0.106,0.238-0.211,0.449-0.291,0.661c-0.106,0.211-0.211,0.396-0.291,0.555
				c-0.185,0.317-0.317,0.582-0.423,0.767c-0.026,0.079-0.079,0.132-0.106,0.185c0-0.053,0.026-0.132,0.026-0.238
				c0.053-0.185,0.106-0.476,0.211-0.819c0.026-0.185,0.079-0.37,0.132-0.608c0.053-0.211,0.106-0.449,0.159-0.687
				c0.106-0.502,0.264-1.057,0.37-1.665c0.079-0.317,0.132-0.634,0.211-0.951c0.053-0.344,0.106-0.687,0.159-1.031
				c0.026-0.185,0.079-0.344,0.106-0.529c0.026-0.185,0.053-0.37,0.053-0.529c0.053-0.211,0.079-0.396,0.079-0.581
				c0.026-0.079,0.053-0.185,0.053-0.264c0.026-0.106,0.026-0.185,0.026-0.291c0.026-0.185,0.026-0.396,0.053-0.581
				c0.026-0.106,0.026-0.185,0.053-0.291v-0.291c0.026-0.396,0.053-0.793,0.079-1.189v-1.216c0-0.185,0-0.396-0.026-0.582
				c0-0.211,0-0.423-0.026-0.608l-0.026-0.608c-0.026-0.106-0.026-0.185-0.053-0.317l-0.026-0.291
				c-0.026-0.185-0.079-0.396-0.079-0.581c-0.026-0.185-0.079-0.396-0.106-0.582c-0.026-0.106-0.053-0.185-0.053-0.291
				c-0.026-0.106-0.053-0.185-0.079-0.291c-0.053-0.185-0.106-0.37-0.132-0.555c-0.053-0.185-0.106-0.37-0.185-0.555
				c0-0.106-0.053-0.185-0.079-0.264c0-0.106-0.053-0.185-0.079-0.264c-0.053-0.185-0.132-0.37-0.185-0.555
				c-0.079-0.159-0.132-0.317-0.211-0.502c-0.026-0.079-0.079-0.159-0.106-0.238c-0.026-0.079-0.079-0.159-0.106-0.238
				c-0.053-0.079-0.079-0.159-0.132-0.238c-0.026-0.079-0.079-0.159-0.106-0.238c-0.079-0.159-0.159-0.291-0.238-0.449
				c-0.026-0.079-0.079-0.132-0.132-0.211c-0.026-0.079-0.079-0.159-0.132-0.211c-0.026-0.079-0.079-0.132-0.106-0.211
				c-0.053-0.079-0.106-0.132-0.132-0.185c-0.106-0.159-0.185-0.264-0.264-0.396c-0.344-0.502-0.714-0.951-1.031-1.321
				c-0.344-0.37-0.661-0.687-0.925-0.925c-0.264-0.264-0.476-0.449-0.634-0.582c-0.159-0.106-0.238-0.185-0.238-0.185
				s0.106,0.053,0.291,0.106c0.185,0.106,0.449,0.211,0.767,0.396c0.343,0.185,0.713,0.423,1.136,0.74
				c0.423,0.317,0.872,0.714,1.348,1.189c0.449,0.476,0.899,1.004,1.321,1.639c0.106,0.159,0.185,0.317,0.291,0.476
				c0.053,0.106,0.106,0.185,0.159,0.264c0.053,0.079,0.079,0.159,0.159,0.264c0.079,0.159,0.185,0.344,0.264,0.528
				c0.079,0.185,0.159,0.37,0.264,0.555c0.079,0.211,0.159,0.396,0.211,0.582c0.079,0.211,0.159,0.396,0.238,0.608
				c0.106,0.396,0.238,0.819,0.317,1.242c0.053,0.211,0.106,0.423,0.159,0.634c0.026,0.211,0.053,0.423,0.106,0.634l0.053,0.317
				c0,0.106,0.026,0.238,0.026,0.344l0.053,0.661c0.026,0.211,0.026,0.423,0.026,0.661c0.026,0.185,0.026,0.423,0.026,0.634
				c0,0.211,0,0.423-0.026,0.661c0,0.211-0.026,0.423-0.026,0.634c-0.026,0.423-0.079,0.846-0.132,1.269v0.132l-0.026,0.159
				c-0.026,0.106-0.026,0.211-0.053,0.317c-0.026,0.185-0.079,0.396-0.106,0.608c-0.026,0.106-0.026,0.185-0.053,0.291
				c-0.026,0.106-0.053,0.185-0.053,0.291c-0.053,0.185-0.106,0.396-0.132,0.582c-0.053,0.185-0.106,0.37-0.159,0.555
				c-0.053,0.185-0.106,0.37-0.132,0.528c-0.132,0.37-0.211,0.714-0.317,1.031c-0.132,0.317-0.238,0.634-0.37,0.925
				C103.627,23.752,103.389,24.28,103.178,24.756z M109.917,21.162c-0.026,0.185-0.026,0.343-0.053,0.555
				c-0.026,0.185-0.053,0.37-0.106,0.555c0,0.079,0,0.185-0.026,0.264l-0.053,0.291c-0.026,0.185-0.079,0.37-0.106,0.555
				c-0.079,0.396-0.185,0.766-0.264,1.136l-0.159,0.555c-0.053,0.185-0.106,0.37-0.159,0.555c-0.053,0.159-0.106,0.344-0.185,0.529
				c-0.053,0.185-0.106,0.37-0.159,0.555c-0.264,0.714-0.529,1.401-0.846,2.035c-0.132,0.344-0.291,0.661-0.423,0.978
				c-0.159,0.291-0.317,0.608-0.476,0.898c-0.079,0.132-0.132,0.264-0.238,0.423c-0.079,0.132-0.159,0.264-0.238,0.396
				c-0.079,0.159-0.132,0.264-0.211,0.396c-0.079,0.132-0.159,0.264-0.238,0.37c-0.159,0.264-0.291,0.476-0.449,0.713
				c-0.053,0.106-0.132,0.211-0.211,0.291c-0.053,0.106-0.132,0.211-0.185,0.291c-0.132,0.211-0.264,0.396-0.396,0.555
				c-0.106,0.159-0.211,0.317-0.317,0.423c-0.211,0.264-0.37,0.476-0.476,0.634c-0.026,0.026-0.053,0.053-0.079,0.079
				c0-0.026,0.026-0.053,0.053-0.106c0.106-0.159,0.211-0.37,0.423-0.661c0.159-0.264,0.37-0.634,0.581-1.031
				c0.079-0.106,0.132-0.211,0.211-0.291c0.053-0.106,0.106-0.211,0.185-0.344c0.106-0.238,0.238-0.449,0.37-0.713
				c0.079-0.132,0.159-0.238,0.211-0.37c0.079-0.132,0.132-0.264,0.211-0.423c0.053-0.132,0.132-0.264,0.211-0.396
				c0.053-0.159,0.132-0.291,0.211-0.449c0.132-0.291,0.264-0.582,0.423-0.899c0.132-0.317,0.264-0.634,0.396-0.951
				c0.079-0.159,0.132-0.317,0.211-0.502c0.053-0.159,0.106-0.344,0.185-0.502c0.079-0.159,0.132-0.344,0.185-0.502
				c0.079-0.185,0.132-0.37,0.185-0.529c0.053-0.185,0.132-0.37,0.185-0.529c0.053-0.185,0.106-0.37,0.159-0.529
				c0.106-0.37,0.211-0.74,0.317-1.11c0.053-0.37,0.159-0.714,0.238-1.084c0.053-0.185,0.079-0.37,0.106-0.555l0.053-0.264
				c0.026-0.079,0.053-0.185,0.053-0.291c0.026-0.185,0.053-0.343,0.106-0.528c0-0.185,0.053-0.37,0.053-0.555
				c0.053-0.37,0.106-0.714,0.132-1.057c0.053-0.713,0.106-1.401,0.106-2.035s0-1.269-0.026-1.824
				c-0.026-0.132-0.026-0.264-0.026-0.423c-0.026-0.132-0.026-0.264-0.053-0.396c0-0.132-0.026-0.238-0.026-0.37
				c-0.026-0.132-0.026-0.238-0.053-0.344c-0.053-0.476-0.132-0.872-0.185-1.189c-0.079-0.317-0.132-0.581-0.185-0.74
				c0-0.053-0.026-0.106-0.026-0.132c0.026,0.026,0.053,0.053,0.079,0.106c0.053,0.185,0.132,0.423,0.238,0.74
				c0.079,0.317,0.211,0.714,0.291,1.189c0.079,0.449,0.185,0.951,0.264,1.533c0,0.132,0.026,0.291,0.053,0.423
				c0,0.159,0.026,0.317,0.026,0.476c0.026,0.291,0.053,0.634,0.053,0.952c0.026,0.661,0.026,1.348-0.026,2.061
				C109.996,20.422,109.97,20.792,109.917,21.162z"/>
		</g>
	</g>
	<g>
		<g>
			<polygon fill="#E21349" points="16.687,14.061 11.095,20.133 9.93,14.061 4.406,14.061 0,26.16 4.383,26.16 6.849,19.358 
				8.105,26.16 9.679,26.16 15.888,19.358 13.423,26.16 17.806,26.16 22.212,14.061 			"/>
			<path fill="#E21349" d="M33.59,15.693c-0.068-0.265-0.148-0.521-0.239-0.765c-0.092-0.242-0.202-0.448-0.331-0.615
				c-0.129-0.167-0.27-0.251-0.423-0.251h-3.835c-0.107,0-0.24,0.056-0.399,0.171c-0.16,0.115-0.319,0.244-0.479,0.387
				c-0.16,0.146-0.309,0.294-0.446,0.446c-0.136,0.153-0.228,0.272-0.274,0.364l-8.217,10.502V26c0-0.014-0.015,0.038-0.046,0.16
				h9.655c0.107-0.045,0.275-0.19,0.502-0.434c0.229-0.242,0.46-0.509,0.696-0.798c0.236-0.289,0.448-0.564,0.64-0.822
				c0.19-0.258,0.299-0.434,0.331-0.526l0.479,2.58h4.063l-1.506-9.793C33.716,16.184,33.659,15.961,33.59,15.693z M26.092,23.1
				v-0.228l3.835-5.137l0.799,5.365H26.092z"/>
			<path fill="#E21349" d="M42.505,14.061c-0.426,0-0.852,0.141-1.278,0.423c-0.426,0.282-0.806,0.632-1.141,1.049
				c-0.336,0.418-0.609,0.859-0.822,1.324c-0.214,0.465-0.321,0.878-0.321,1.244c0,0.397,0.069,0.798,0.206,1.209
				c0.137,0.411,0.339,0.789,0.606,1.129c0.265,0.343,0.582,0.625,0.947,0.845c0.365,0.221,0.776,0.331,1.233,0.331H46.5
				c0.121,0,0.205,0.066,0.251,0.195c0.046,0.129,0.068,0.254,0.068,0.376v0.139v0.136c0,0.153-0.019,0.296-0.058,0.434
				c-0.037,0.136-0.17,0.204-0.399,0.204h-7.761c-0.046,0-0.183,0.134-0.411,0.399c-0.229,0.268-0.477,0.571-0.742,0.913
				c-0.266,0.343-0.518,0.681-0.754,1.017c-0.236,0.336-0.392,0.578-0.468,0.73H47.87c0.411,0,0.81-0.124,1.197-0.376
				c0.389-0.251,0.731-0.568,1.027-0.948c0.297-0.38,0.537-0.796,0.72-1.244c0.183-0.448,0.274-0.871,0.274-1.265v-0.139
				c0-0.35-0.049-0.73-0.148-1.141c-0.1-0.411-0.259-0.796-0.479-1.153c-0.222-0.357-0.507-0.653-0.857-0.89
				c-0.35-0.235-0.776-0.355-1.278-0.355h-4.336c-0.015,0-0.08-0.026-0.194-0.08c-0.115-0.052-0.202-0.11-0.263-0.171
				c-0.03-0.03-0.076-0.07-0.137-0.124c-0.061-0.054-0.092-0.087-0.092-0.103v-0.115c0-0.136,0.061-0.319,0.183-0.547
				c0.122-0.228,0.266-0.343,0.433-0.343h7.533c0.548-0.517,1.047-1.033,1.496-1.552c0.448-0.517,0.849-1.035,1.199-1.552H42.505z"
				/>
			<path fill="#E21349" d="M65.616,16.778c0.266-0.244,0.54-0.533,0.823-0.866c0.281-0.336,0.547-0.674,0.798-1.017
				c0.251-0.343,0.43-0.62,0.537-0.833H56.338c-0.214,0.136-0.468,0.362-0.764,0.674c-0.297,0.312-0.587,0.636-0.868,0.97
				c-0.282,0.336-0.526,0.639-0.731,0.913c-0.205,0.275-0.316,0.441-0.331,0.502v0.024h4.315l-3.288,9.016h4.383l3.287-9.016h2.694
				C65.156,17.144,65.351,17.022,65.616,16.778z"/>
			<path fill="#E21349" d="M70.514,21.708h4.543l3.264-3.08h-5.272l-2.169,2.099l1.302-3.583h7.03c0.121,0,0.316-0.122,0.582-0.366
				c0.265-0.244,0.54-0.533,0.822-0.866c0.281-0.336,0.547-0.674,0.798-1.017s0.43-0.62,0.537-0.833H68.938L64.533,26.16h11.482
				c0.015,0,0.11-0.075,0.286-0.228c0.174-0.153,0.376-0.338,0.605-0.559c0.228-0.221,0.46-0.453,0.696-0.697
				c0.236-0.244,0.423-0.455,0.559-0.639c0.015-0.016,0.054-0.068,0.115-0.16c0.06-0.092,0.121-0.19,0.182-0.298
				c0.061-0.106,0.122-0.209,0.183-0.308c0.06-0.099,0.099-0.162,0.114-0.195h-8.743L70.514,21.708z"/>
			<path fill="#E21349" d="M95.818,16.411c-0.054-0.411-0.168-0.791-0.343-1.141c-0.175-0.35-0.43-0.639-0.764-0.866
				c-0.335-0.228-0.776-0.343-1.324-0.343H83.205L78.799,26.16h4.383l1.506-4.156l0.251-0.181l4.703,4.336h4.885l-4.474-4.588
				c0.608-0.047,1.26-0.134,1.952-0.263c0.691-0.129,1.323-0.343,1.895-0.639c0.571-0.298,1.046-0.697,1.426-1.2
				c0.38-0.502,0.57-1.141,0.57-1.916C95.897,17.205,95.87,16.822,95.818,16.411z M91.469,17.804c0,0.153-0.05,0.331-0.149,0.538
				c-0.099,0.204-0.262,0.308-0.491,0.308h-3.652l-2.008,2.033l1.301-3.562h4.589c0.182,0,0.296,0.042,0.341,0.125
				c0.046,0.085,0.069,0.188,0.069,0.31V17.804z"/>
		</g>
	</g>
	<g>
		<g>
			<path fill="#140F11" d="M125.038,16.778c0.266-0.244,0.54-0.533,0.823-0.866c0.281-0.336,0.547-0.674,0.798-1.017
				c0.251-0.343,0.43-0.62,0.537-0.833h-11.436c-0.214,0.136-0.468,0.362-0.764,0.674c-0.297,0.312-0.587,0.636-0.868,0.97
				c-0.282,0.336-0.526,0.639-0.731,0.913c-0.206,0.275-0.316,0.441-0.331,0.502v0.024h4.315l-3.288,9.016h4.384l3.287-9.016h2.694
				C124.577,17.144,124.772,17.022,125.038,16.778z"/>
			<polygon fill="#140F11" points="128.404,14.061 123.999,26.16 128.382,26.16 132.788,14.061 			"/>
			<path fill="#140F11" d="M144.808,20.671c0.57-0.298,1.046-0.697,1.426-1.2c0.38-0.502,0.571-1.141,0.571-1.916
				c0-0.35-0.027-0.733-0.08-1.143c-0.054-0.411-0.168-0.791-0.343-1.141c-0.175-0.35-0.43-0.639-0.764-0.866
				c-0.335-0.228-0.776-0.343-1.324-0.343h-10.181l-4.406,12.098h4.383l1.506-4.156l0.251-0.181l4.703,4.336h4.885l-4.474-4.588
				c0.608-0.047,1.26-0.134,1.952-0.263C143.604,21.18,144.236,20.966,144.808,20.671z M142.376,17.804
				c0,0.153-0.05,0.331-0.149,0.538c-0.099,0.204-0.262,0.308-0.491,0.308h-3.652l-2.008,2.033l1.301-3.562h4.589
				c0.182,0,0.296,0.042,0.342,0.125c0.046,0.085,0.069,0.188,0.069,0.31V17.804z"/>
			<path fill="#140F11" d="M150.068,14.061l-4.406,12.098h11.482c0.015,0,0.11-0.075,0.286-0.228
				c0.174-0.153,0.376-0.338,0.605-0.559c0.228-0.221,0.46-0.453,0.696-0.697c0.236-0.244,0.423-0.455,0.559-0.639
				c0.015-0.016,0.054-0.068,0.115-0.16c0.06-0.092,0.121-0.19,0.182-0.298c0.061-0.106,0.122-0.209,0.183-0.308
				c0.06-0.099,0.099-0.162,0.114-0.195h-8.743l0.502-1.369h4.543l3.264-3.08h-5.272l-2.169,2.099l1.302-3.583h7.031
				c0.121,0,0.316-0.122,0.582-0.366c0.265-0.244,0.54-0.533,0.822-0.866c0.281-0.336,0.547-0.674,0.798-1.017
				c0.251-0.343,0.43-0.62,0.536-0.833H150.068z"/>
		</g>
	</g>
</g>
</svg>
